<svg xmlns="http://www.w3.org/2000/svg" viewBox="0 0 1600 900" preserveAspectRatio="xMidYMid slice">
  <defs>
    <linearGradient id="sky" x1="0" y1="0" x2="0" y2="1">
      <stop offset="0" stop-color="#0a1226"/><stop offset="0.55" stop-color="#132445"/><stop offset="1" stop-color="#050609"/>
    </linearGradient>
    <radialGradient id="moon" cx="0.4" cy="0.36" r="0.65">
      <stop offset="0" stop-color="#fff7da"/><stop offset="0.55" stop-color="#f2c14e"/><stop offset="1" stop-color="#a86f16"/>
    </radialGradient>
    <radialGradient id="glow" cx="0.5" cy="0.5" r="0.5">
      <stop offset="0" stop-color="#f2c14e" stop-opacity="0.55"/><stop offset="1" stop-color="#f2c14e" stop-opacity="0"/>
    </radialGradient>
    <linearGradient id="sea" x1="0" y1="0" x2="0" y2="1">
      <stop offset="0" stop-color="#0b1830"/><stop offset="1" stop-color="#03050a"/>
    </linearGradient>
    <filter id="grain"><feTurbulence type="fractalNoise" baseFrequency="0.9" numOctaves="2" stitchTiles="stitch"/>
      <feColorMatrix type="saturate" values="0"/><feComponentTransfer><feFuncA type="linear" slope="0.06"/></feComponentTransfer></filter>
  </defs>
  <rect width="1600" height="900" fill="url(#sky)"/>
  <circle cx="1120" cy="300" r="420" fill="url(#glow)"/>
  <rect y="600" width="1600" height="300" fill="url(#sea)"/>
  <circle cx="1120" cy="300" r="132" fill="url(#moon)"/>
  <g opacity="0.85">
    <path d="M0 690 Q400 660 800 690 T1600 690 L1600 900 L0 900Z" fill="#081326"/>
    <path d="M0 740 Q500 710 1000 744 T1600 736 L1600 900 L0 900Z" fill="#060d1c"/>
  </g>
  <path d="M1120 432 L1120 620" stroke="#f2c14e" stroke-opacity="0.18" stroke-width="46" stroke-linecap="round"/>
  <g fill="#02040a">
    <ellipse cx="330" cy="690" rx="34" ry="60"/>
    <circle cx="330" cy="612" r="24"/>
    <ellipse cx="410" cy="700" rx="30" ry="54"/>
    <circle cx="410" cy="630" r="21"/>
  </g>
  <rect width="1600" height="900" filter="url(#grain)"/>
</svg>
